Run_40002
nRows=4
nColumns=164

# SIMM Motion File Header:
name Run_40002
datacolumns 164
datarows 4
otherdata 1
range 1.64000000 1.67000000
endheader
time	pelvis_tilt	pelvis_list	pelvis_rotation	pelvis_tx	pelvis_ty	pelvis_tz	hip_flexion_r	hip_adduction_r	hip_rotation_r	knee_angle_r	ankle_angle_r	hip_flexion_l	hip_adduction_l	hip_rotation_l	knee_angle_l	ankle_angle_l	lumbar_extension	lumbar_bending	lumbar_rotation	arm_flex_r	arm_add_r	arm_rot_r	elbow_flex_r	pro_sup_r	arm_flex_l	arm_add_l	arm_rot_l	elbow_flex_l	pro_sup_l	subtalar_angle_r	mtp_angle_r	subtalar_angle_l	mtp_angle_l	wrist_flex_r	wrist_dev_r	wrist_flex_l	wrist_dev_l	LASI_tx	LASI_ty	LASI_tz	RASI_tx	RASI_ty	RASI_tz	LPSI_tx	LPSI_ty	LPSI_tz	RPSI_tx	RPSI_ty	RPSI_tz	RTH1_tx	RTH1_ty	RTH1_tz	RTH2_tx	RTH2_ty	RTH2_tz	RTH3_tx	RTH3_ty	RTH3_tz	LTH1_tx	LTH1_ty	LTH1_tz	LTH2_tx	LTH2_ty	LTH2_tz	LTH3_tx	LTH3_ty	LTH3_tz	RTB1_tx	RTB1_ty	RTB1_tz	RTB2_tx	RTB2_ty	RTB2_tz	RTB3_tx	RTB3_ty	RTB3_tz	LTB1_tx	LTB1_ty	LTB1_tz	LTB2_tx	LTB2_ty	LTB2_tz	LTB3_tx	LTB3_ty	LTB3_tz	RCAL_tx	RCAL_ty	RCAL_tz	RTOE_tx	RTOE_ty	RTOE_tz	RMT5_tx	RMT5_ty	RMT5_tz	LCAL_tx	LCAL_ty	LCAL_tz	LTOE_tx	LTOE_ty	LTOE_tz	LMT5_tx	LMT5_ty	LMT5_tz	LACR_tx	LACR_ty	LACR_tz	RACR_tx	RACR_ty	RACR_tz	CLAV_tx	CLAV_ty	CLAV_tz	C7_tx	C7_ty	C7_tz	RUA1_tx	RUA1_ty	RUA1_tz	RUA2_tx	RUA2_ty	RUA2_tz	RUA3_tx	RUA3_ty	RUA3_tz	RLEL_tx	RLEL_ty	RLEL_tz	RMEL_tx	RMEL_ty	RMEL_tz	LUA1_tx	LUA1_ty	LUA1_tz	LUA2_tx	LUA2_ty	LUA2_tz	LUA3_tx	LUA3_ty	LUA3_tz	LLEL_tx	LLEL_ty	LLEL_tz	LMEL_tx	LMEL_ty	LMEL_tz	RFAsuperior_tx	RFAsuperior_ty	RFAsuperior_tz	RFAradius_tx	RFAradius_ty	RFAradius_tz	RFAulna_tx	RFAulna_ty	RFAulna_tz	LFAsuperior_tx	LFAsuperior_ty	LFAsuperior_tz	LFAradius_tx	LFAradius_ty	LFAradius_tz	LFAulna_tx	LFAulna_ty	LFAulna_tz
      1.64000000	     -7.59836755	      6.17303438	     -0.24807319	      1.21658331	      0.98635583	     -0.33682599	    -23.69885950	     -2.68645146	      9.70549873	    -22.36375463	    -22.88196351	     38.40605208	     13.54366735	      2.40906374	    -32.11658830	      3.33516067	     -7.77791677	     -5.05485837	     15.67858206	    -12.82185894	    -23.52187956	      5.83347217	    142.27081456	     95.86721065	    -60.67196263	    -14.69998188	    -16.33312707	    127.33041719	     93.61639494	      0.00000000	      0.00000000	      0.00000000	      0.00000000	      0.00000000	      0.00000000	      0.00000000	      0.00000000	      1.22842491	      1.02002662	     -0.44900652	      1.22635172	      0.99095974	     -0.20757037	      1.06061508	      1.07848460	     -0.37375306	      1.06327076	      1.07338755	     -0.28085748	      1.12347583	      0.82246425	     -0.16198915	      1.09977268	      0.72115384	     -0.18999807	      0.96776282	      0.64030670	     -0.18655386	      1.17188163	      0.88386378	     -0.52087606	      1.29320229	      0.81265224	     -0.49304262	      1.29014135	      0.67693882	     -0.47135708	      0.81061762	      0.41661100	     -0.25852188	      0.70760661	      0.37828108	     -0.20439902	      0.65806852	      0.31753394	     -0.26545075	      1.38518180	      0.41473862	     -0.39091782	      1.34430136	      0.35186662	     -0.42567325	      1.36194045	      0.27832181	     -0.36523951	      0.53428619	      0.36349334	     -0.24183324	      0.58480296	      0.14045018	     -0.30399209	      0.55759122	      0.13233387	     -0.23022002	      1.24329481	      0.14045109	     -0.32934780	      1.51086795	      0.10560633	     -0.32362436	      1.45806595	      0.12045664	     -0.40884568	      1.20833645	      1.54815520	     -0.47351699	      1.28521657	      1.51860068	     -0.16233212	      1.29995783	      1.46552721	     -0.30739461	      1.18497261	      1.55729387	     -0.30142173	      1.27381944	      1.38972951	     -0.07282586	      1.21292761	      1.37589895	     -0.04576373	      1.24038055	      1.31072492	     -0.03087866	      1.22252253	      1.22915781	     -0.00482193	      1.14379223	      1.22193444	     -0.06435854	      1.09297422	      1.52854068	     -0.52952363	      1.02527234	      1.51815388	     -0.46795770	      0.98212662	      1.47886718	     -0.53847894	      0.91515818	      1.43832266	     -0.54848521	      0.91509614	      1.41644678	     -0.45826029	      1.28808300	      1.25766622	     -0.06017706	      1.36101109	      1.31272322	     -0.20122605	      1.38676573	      1.24513824	     -0.19117945	      0.96453391	      1.36935039	     -0.56955510	      1.11180735	      1.25879653	     -0.54511376	      1.06207684	      1.21210369	     -0.56355197
      1.65000000	     -7.02983394	      5.46008840	     -0.14322194	      1.21818145	      0.98638008	     -0.33494407	    -24.97748668	     -0.91938120	     13.20412535	    -25.10543075	    -21.10736744	     36.37335795	     12.56046485	      3.09387697	    -24.82002401	      1.86538810	     -8.56630450	     -4.73357075	     15.55299940	    -13.35819106	    -24.55985223	      6.26720549	    141.90087716	     95.59991131	    -59.74515630	    -14.79349164	    -16.79046232	    128.00797541	     94.16443808	      0.00000000	      0.00000000	      0.00000000	      0.00000000	      0.00000000	      0.00000000	      0.00000000	      0.00000000	      1.22914588	      1.02042810	     -0.44801507	      1.22789190	      0.99107443	     -0.20704655	      1.06096381	      1.07796443	     -0.37218682	      1.06301218	      1.07293616	     -0.27907540	      1.12731091	      0.82050663	     -0.16418652	      1.10339565	      0.71965543	     -0.19510324	      0.97309051	      0.63772463	     -0.18838233	      1.17137954	      0.87993020	     -0.52029983	      1.29134844	      0.80683617	     -0.49345626	      1.28609463	      0.67217595	     -0.47153209	      0.80326660	      0.42264177	     -0.26070495	      0.69929133	      0.39009443	     -0.20425199	      0.64414206	      0.33442840	     -0.26537435	      1.39360892	      0.41213354	     -0.38950217	      1.36023853	      0.34510034	     -0.42404049	      1.38628459	      0.27439776	     -0.36306447	      0.52130971	      0.38553548	     -0.23415544	      0.56386407	      0.16507330	     -0.30971897	      0.53942290	      0.15384939	     -0.23477842	      1.28318155	      0.12608413	     -0.32473510	      1.54800632	      0.11163179	     -0.32255793	      1.49502837	      0.12574582	     -0.40775328	      1.21060241	      1.54598800	     -0.47604938	      1.28730520	      1.51910433	     -0.16409347	      1.30183349	      1.46499708	     -0.30836504	      1.18749633	      1.55688480	     -0.30330661	      1.27707639	      1.39233457	     -0.07250547	      1.21692993	      1.37925726	     -0.04447863	      1.24311215	      1.31399781	     -0.02858988	      1.22423784	      1.23292296	     -0.00094338	      1.14497424	      1.22586949	     -0.05963773	      1.09466855	      1.52464805	     -0.53211738	      1.02666012	      1.51368267	     -0.46973527	      0.98428378	      1.47466864	     -0.54063530	      0.91774243	      1.43348971	     -0.55059461	      0.91740609	      1.41078315	     -0.46024847	      1.28980962	      1.25861288	     -0.05793233	      1.36183101	      1.30906784	     -0.20168871	      1.38599808	      1.24110666	     -0.18994379	      0.96909958	      1.36579718	     -0.57189587	      1.11838969	      1.25833431	     -0.54724995	      1.06964675	      1.21083636	     -0.56674063
      1.66000000	     -6.23663175	      4.73635862	      0.07312055	      1.21970372	      0.98579705	     -0.33343053	    -26.08843327	      0.90834734	     15.66533484	    -28.56261176	    -19.90429770	     34.19290312	     11.67742476	      3.60724546	    -18.62711004	      0.39657698	     -9.65682996	     -4.29821758	     15.24864913	    -14.11873869	    -25.31766085	      6.38817534	    141.15822434	     95.80523867	    -58.27930247	    -15.09700130	    -16.87205161	    128.46213432	     94.42908424	      0.00000000	      0.00000000	      0.00000000	      0.00000000	      0.00000000	      0.00000000	      0.00000000	      0.00000000	      1.22965743	      1.01958153	     -0.44724317	      1.22946502	      0.99095214	     -0.20645174	      1.06110729	      1.07616425	     -0.37083617	      1.06205215	      1.07138036	     -0.27717466	      1.13144183	      0.81782122	     -0.16674663	      1.10780466	      0.71737131	     -0.19929589	      0.97938030	      0.63347942	     -0.19052380	      1.17069403	      0.87635421	     -0.51991579	      1.28938322	      0.79978446	     -0.49340106	      1.28055715	      0.66547390	     -0.47277445	      0.79848507	      0.42712002	     -0.26152748	      0.69340579	      0.40164042	     -0.20360189	      0.63349631	      0.35061084	     -0.26424868	      1.39957174	      0.40929401	     -0.38872336	      1.37168707	      0.33981112	     -0.42334046	      1.40601396	      0.27211397	     -0.36181453	      0.51273819	      0.40807257	     -0.22726226	      0.54487126	      0.18965620	     -0.31332910	      0.52076070	      0.17614556	     -0.23834502	      1.31736034	      0.11633172	     -0.32142294	      1.57579681	      0.11762507	     -0.32131936	      1.52260528	      0.13109922	     -0.40641681	      1.21309917	      1.54291448	     -0.47871277	      1.28946795	      1.51801989	     -0.16529311	      1.30356033	      1.46327023	     -0.30901605	      1.19031715	      1.55603887	     -0.30517353	      1.27924755	      1.39271704	     -0.07217671	      1.21937594	      1.38073187	     -0.04328914	      1.24412305	      1.31540311	     -0.02655003	      1.22375816	      1.23509754	      0.00242641	      1.14454249	      1.22861590	     -0.05589274	      1.09668243	      1.51910638	     -0.53571616	      1.02808040	      1.50719401	     -0.47317975	      0.98705207	      1.46749551	     -0.54391471	      0.92135380	      1.42569268	     -0.55398193	      0.92069233	      1.40240376	     -0.46350372	      1.28994583	      1.25709615	     -0.05561621	      1.36231345	      1.30194372	     -0.20171943	      1.38470923	      1.23380472	     -0.18754794	      0.97501298	      1.35935731	     -0.57518300	      1.12647356	      1.25581905	     -0.54949507	      1.07894814	      1.20735078	     -0.57001289
      1.67000000	     -5.43647169	      4.16898475	      0.41449845	      1.22101692	      0.98447904	     -0.33250489	    -26.64943551	      2.47899290	     16.43356168	    -32.81281849	    -19.60355733	     32.02145060	     11.08131600	      4.21229475	    -13.29449161	     -1.05680356	    -10.78709173	     -3.90891700	     14.73729815	    -15.12321809	    -25.71531870	      6.27107384	    139.97399908	     96.24311482	    -56.36791367	    -15.56762295	    -16.62505193	    128.65010945	     94.47488652	      0.00000000	      0.00000000	      0.00000000	      0.00000000	      0.00000000	      0.00000000	      0.00000000	      0.00000000	      1.22998095	      1.01755343	     -0.44656238	      1.23108808	      0.99031637	     -0.20568536	      1.06106150	      1.07316291	     -0.36960242	      1.06154467	      1.06858905	     -0.27564808	      1.13506720	      0.81467109	     -0.16878327	      1.11226749	      0.71445530	     -0.20151469	      0.98549240	      0.62835620	     -0.19248435	      1.17015674	      0.87382837	     -0.51990950	      1.28707688	      0.79197190	     -0.49296430	      1.27326947	      0.65686221	     -0.47429411	      0.79668993	      0.42981117	     -0.26131057	      0.69055202	      0.41261674	     -0.20251876	      0.62657134	      0.36555709	     -0.26199817	      1.40374552	      0.40665453	     -0.38866046	      1.37828157	      0.33628851	     -0.42332553	      1.42035687	      0.27106480	     -0.36131015	      0.50965468	      0.43097604	     -0.22191443	      0.52791446	      0.21342689	     -0.31387093	      0.50174385	      0.19937560	     -0.23979028	      1.34367572	      0.10997788	     -0.31923640	      1.59643551	      0.12290773	     -0.31942517	      1.54300701	      0.13571997	     -0.40443764	      1.21576208	      1.53893655	     -0.48123523	      1.29172337	      1.51541125	     -0.16619613	      1.30503905	      1.46039632	     -0.30955658	      1.19317497	      1.55462409	     -0.30695046	      1.27990376	      1.39115335	     -0.07180310	      1.21996126	      1.38055643	     -0.04243260	      1.24325562	      1.31526191	     -0.02473273	      1.22114197	      1.23581924	      0.00505065	      1.14203922	      1.23034969	     -0.05315492	      1.09928591	      1.51187912	     -0.53968185	      1.02976047	      1.49909911	     -0.47790714	      0.99054638	      1.45797241	     -0.54815672	      0.92600784	      1.41536407	     -0.55846413	      0.92497224	      1.39168547	     -0.46788763	      1.28844123	      1.25327399	     -0.05328522	      1.36233070	      1.29152026	     -0.20125777	      1.38254952	      1.22327270	     -0.18433846	      0.98210740	      1.35047942	     -0.57924268	      1.13578941	      1.25145090	     -0.55172003	      1.08970520	      1.20187055	     -0.57322853
